<svg width="271" height="615" viewBox="0 0 271 615" fill="none" xmlns="http://www.w3.org/2000/svg">
<path d="M63.2129 0H207.503C242.523 0 270.716 28.1929 270.716 63.2129V551.051C270.716 586.071 242.523 614.264 207.503 614.264H63.2129C28.1929 614.264 0 586.071 0 551.051V63.2129C0 28.1929 28.1929 0 63.2129 0Z" fill="white"/>
<path d="M171.664 112.596L171.865 114.674C176.218 117.246 178.494 119.324 182.945 122.193C194.62 129.614 208.969 142.773 207.187 187.99C210.55 197.884 212.035 217.177 215.003 223.312C221.04 235.482 225.194 243.397 226.975 254.775C226.975 254.775 228.758 272.585 231.032 273.871C243.102 276.642 239.641 277.829 241.322 280.006C243.2 282.38 250.225 282.281 250.225 288.811C252.7 292.076 254.58 295.342 255.865 298.903V63.7186C255.865 36.8064 234.098 15.0392 207.283 15.0392H160.878C168.299 17.7106 172.553 20.8768 175.028 25.8238C180.962 26.3186 187.991 39.6757 177.006 59.563C181.852 62.9271 178.093 67.8741 174.63 73.5138C173.541 75.2948 172.453 78.5599 169.188 78.362C164.834 87.3657 159.787 95.8747 155.931 96.3694C154.844 97.7546 154.05 101.613 155.732 103.394C161.376 105.967 168.2 109.331 171.664 112.596Z" fill="#C80F2E"/>
<path d="M215.001 598.597L214.507 598.696C235.778 585.734 222.619 561.198 218.564 546.753L219.354 544.276C220.442 542.298 218.168 537.649 218.168 537.649C215.498 535.472 214.903 523.402 213.517 517.862C211.244 508.858 217.573 493.126 217.573 487.783C217.573 482.438 213.517 475.117 206.196 465.818C204.414 463.741 199.071 418.128 194.322 406.552C187.693 390.621 185.713 393.192 177.8 374.099C171.763 360.741 176.512 341.053 162.86 295.341L165.926 292.472C165.926 292.472 155.042 252.698 151.479 241.814C148.014 230.93 141.586 230.238 141.586 230.238L141.98 224.598C142.476 222.916 155.238 189.771 156.327 188.682C156.424 187.99 174.73 175.424 175.025 177.304C176.508 185.417 183.633 226.676 186.699 233.206C189.766 239.835 200.356 260.019 205.203 272.585C186.305 277.235 172.155 294.352 172.155 314.637C172.155 338.58 191.549 358.071 215.493 358.071C233.794 358.071 249.628 346.694 255.958 330.665L255.86 550.614C255.864 574.951 238.351 595.035 215.001 598.597Z" fill="#C80F2E"/>
<path d="M145.641 15.0392C129.81 21.1736 127.634 28.0006 127.041 49.9657C124.37 50.2625 118.828 47.69 120.709 61.0471C120.709 61.0471 121.699 69.9519 125.26 68.4678C122.49 87.8604 124.691 92.714 111.806 94.0937C109.035 94.3906 105.67 94.5884 101.516 94.7863L100.229 96.5673C82.6178 98.2493 73.8945 97.1238 62.5313 112.101C58.1778 117.84 53.5276 125.953 47.7889 137.529C47.7889 137.529 42.545 150.491 40.9606 155.833C35.9145 166.42 23.5468 189.869 19.886 204.909C18.7 210.054 16.423 211.637 19.6881 219.057C24.5362 229.743 16.5219 232.513 44.0278 231.722V238.054C44.0278 238.054 36.7061 244.386 35.123 248.146C33.6389 252.005 29.3844 270.903 29.5836 279.907C30.077 303.356 49.1741 322.945 54.8124 346.297L67.5759 348.079C74.5019 364.008 104.778 406.947 111.804 413.874C111.903 413.973 112.002 414.073 112.101 414.172C113.683 418.227 121.501 423.275 126.051 428.321C128.822 430.992 141.587 444.844 158.604 458.005C164.851 462.835 171.568 467.601 178.59 471.659C178.392 471.558 182.746 480.267 184.922 487.389C176.215 494.412 193.135 507.278 198.28 528.55C198.576 531.417 193.331 534.289 201.149 541.312C200.654 573.466 190.86 590.29 207.283 599.192H62.5313C36.2141 598.598 14.9402 577.03 14.9402 550.611V63.7186C14.9402 37.1032 36.2127 15.6328 62.5313 15.0392H145.641Z" fill="#1D4289"/>
</svg>
